<svg xmlns="http://www.w3.org/2000/svg" xmlns:xlink="http://www.w3.org/1999/xlink" width="245" height="40.401" viewBox="0 0 245 40.401">
  <defs>
    <clipPath id="clip-path">
      <rect width="245" height="40.401" fill="none"/>
    </clipPath>
  </defs>
  <g id="logowhite" clip-path="url(#clip-path)">
    <path id="Path_1812" data-name="Path 1812" d="M-592.568,110.558a17.893,17.893,0,0,1,14.613,18.916,18.085,18.085,0,0,1-19.209,16.883,18.08,18.08,0,0,1-16.885-19.206,17.033,17.033,0,0,1,3.876-10.362,20.226,20.226,0,0,0-5.44,12.568,20.3,20.3,0,0,0,18.955,21.559,20.3,20.3,0,0,0,21.562-18.952,20.3,20.3,0,0,0-17.473-21.406Z" transform="translate(624.761 -110.558)" fill="#fff"/>
    <path id="Path_1813" data-name="Path 1813" d="M-636.561,147.869a27.511,27.511,0,0,0,6.465,1.384,75.12,75.12,0,0,0,22.369-.194,47.3,47.3,0,0,0,20.3-7.916c5.134-3.538,7.4-7.1,7.6-10.468.238-4.14-3.021-6.428-6.08-7.183a10.825,10.825,0,0,0-2.791-.443,10.979,10.979,0,0,1,2.873,1.26,5.546,5.546,0,0,1,2.767,5.731c-.477,2.74-2.846,5.236-7.228,8.307-4.856,3.4-11.725,5.963-18.058,7.5a96.165,96.165,0,0,1-19.977,2.409,60.827,60.827,0,0,1-8.234-.39Z" transform="translate(636.561 -117.608)" fill="#fff"/>
    <g id="Group_1" data-name="Group 1" transform="translate(67.104 16.215)">
      <path id="Path_1814" data-name="Path 1814" d="M-480.659,154.016c0-2.772,0-3.274-.036-3.853s-.158-.875-.753-1a3.886,3.886,0,0,0-.7-.055c-.16,0-.251-.019-.3-.072a.174.174,0,0,1-.047-.129c0-.188.218-.2.439-.2.551,0,1.153.017,1.685.033.395.011.736.02.971.02.2,0,.541-.011.9-.022.458-.014.971-.031,1.329-.031.224,0,.334.022.392.086a.142.142,0,0,1,.049.116c0,.2-.232.2-.331.2a2.74,2.74,0,0,0-.521.055c-.439.08-.6.334-.64,1-.036.579-.036,1.081-.036,3.853v2.546c0,2.9.673,3.848,1.4,4.444a3.343,3.343,0,0,0,2.25.736,3.566,3.566,0,0,0,2.48-.971c.968-.968,1.046-2.535,1.046-4.482v-2.273c0-2.772,0-3.274-.039-3.853s-.151-.875-.75-1a3.553,3.553,0,0,0-.648-.055c-.155,0-.246-.019-.3-.072a.165.165,0,0,1-.049-.129c0-.188.214-.2.419-.2.37,0,1.029.008,2.039.053h.055c.074,0,.273-.006.524-.014.457-.017,1.092-.039,1.547-.039.2,0,.318.022.375.083a.157.157,0,0,1,.044.118c0,.179-.176.2-.364.2a2.7,2.7,0,0,0-.522.055c-.441.08-.607.334-.642,1-.036.579-.036,1.081-.036,3.853v1.945c0,2.085-.21,4.193-1.74,5.505a5.49,5.49,0,0,1-3.809,1.318,5.906,5.906,0,0,1-4.063-1.266c-1.111-1-1.629-2.546-1.629-4.849v-2.654Z" transform="translate(482.496 -148.303)" fill="#fff"/>
      <path id="Path_1815" data-name="Path 1815" d="M-426.629,157.219c0,2.3,0,3.563.369,3.878.287.254.717.392,2.176.392,1.021,0,1.669-.033,2.1-.5a2.257,2.257,0,0,0,.463-1.068c.014-.149.05-.306.24-.306a.166.166,0,0,1,.119.041c.052.055.063.143.063.306a14.243,14.243,0,0,1-.276,2.1c-.115.428-.229.519-1.18.519-1.5,0-2.518-.036-3.417-.064-.668-.025-1.247-.044-1.876-.044-.182,0-.494.009-.855.02-.48.014-1.024.036-1.437.036a.493.493,0,0,1-.35-.091.177.177,0,0,1-.052-.13.159.159,0,0,1,.041-.113.434.434,0,0,1,.29-.071,2.886,2.886,0,0,0,.645-.072c.345-.069.43-.48.5-.969.094-.761.094-2.2.094-3.866v-3.2c0-2.772,0-3.274-.036-3.853s-.16-.875-.753-1a2.758,2.758,0,0,0-.593-.055c-.157,0-.246-.019-.3-.072a.176.176,0,0,1-.05-.129c0-.188.215-.2.439-.2.485,0,1.062.017,1.57.033.38.008.709.02.918.02.193,0,.552-.011.966-.02.524-.017,1.112-.033,1.511-.033.207,0,.314.022.375.083a.157.157,0,0,1,.044.118c0,.179-.176.2-.364.2a5.027,5.027,0,0,0-.7.055c-.442.08-.6.334-.64,1-.039.579-.039,1.081-.039,3.853v3.2Z" transform="translate(453.264 -148.303)" fill="#fff"/>
      <path id="Path_1816" data-name="Path 1816" d="M-389.94,149.469l-2.711.075c-1,.033-1.465.113-1.732.507a2.078,2.078,0,0,0-.306.626c-.028.113-.08.246-.238.246a.166.166,0,0,1-.129-.047.374.374,0,0,1-.072-.281c0-.293.345-1.942.383-2.1.056-.237.114-.372.254-.372a.571.571,0,0,1,.216.064,1.6,1.6,0,0,0,.571.154c.543.052,1.239.088,1.815.088h7.2a6.746,6.746,0,0,0,1.556-.149,1.11,1.11,0,0,1,.187-.033.159.159,0,0,1,.116.044c.057.061.068.171.068.378,0,.179-.011.554-.025.954-.013.447-.03.908-.03,1.156-.016.174-.052.329-.2.329-.2,0-.223-.161-.24-.4l-.013-.2c-.03-.35-.339-.943-2.11-.982l-2.292-.055.038-.038v7.459c0,1.666,0,3.106.091,3.886.061.551.188.882.679.946a7.13,7.13,0,0,0,.919.074.4.4,0,0,1,.287.077.134.134,0,0,1,.041.108c0,.139-.135.221-.381.221-.728,0-1.431-.023-1.994-.036-.353-.011-.664-.02-.863-.02-.179,0-.491.009-.852.02-.48.014-1.024.036-1.434.036a.514.514,0,0,1-.356-.091.2.2,0,0,1-.05-.13.148.148,0,0,1,.044-.113.412.412,0,0,1,.284-.071,2.912,2.912,0,0,0,.649-.072c.336-.069.441-.436.5-.966.091-.764.091-2.2.091-3.869v-7.459l.041.038Z" transform="translate(433.182 -147.975)" fill="#fff"/>
      <path id="Path_1817" data-name="Path 1817" d="M-345.2,155.453c0,.2.036.246.141.292a4.729,4.729,0,0,0,1.368.176,1.784,1.784,0,0,0,1.266-.3,3.117,3.117,0,0,0,1.059-2.7,3.4,3.4,0,0,0-.889-2.516,2.662,2.662,0,0,0-1.856-.772,3.873,3.873,0,0,0-.955.072c-.1.027-.135.08-.135.215v5.53Zm-2.224-1.437c0-2.772,0-3.274-.035-3.853s-.155-.875-.753-1a3.841,3.841,0,0,0-.7-.055c-.16,0-.248-.019-.3-.072a.176.176,0,0,1-.049-.129c0-.188.215-.2.438-.2.593,0,1.238.017,1.766.039.325.006.582.014.728.014.318,0,.833-.011,1.338-.025.485-.017.949-.028,1.227-.028a5.867,5.867,0,0,1,3.368.789,3.188,3.188,0,0,1,1.252,2.521c0,1.5-.726,2.731-2.416,4.1l.005-.053.637.8c1.33,1.683,2.38,3.01,3.307,3.983a3.622,3.622,0,0,0,2,1.222l.017,0a2.71,2.71,0,0,0,.5.055.289.289,0,0,1,.21.066.164.164,0,0,1,.047.118c0,.221-.257.221-.384.221h-1.73a3.754,3.754,0,0,1-1.964-.353,8.645,8.645,0,0,1-2.5-2.684c-.311-.425-.642-.9-.932-1.308-.395-.56-.734-1.043-.872-1.2a.343.343,0,0,0-.3-.113l-1.581-.036c-.08,0-.108.025-.108.108v.251c0,1.68,0,3.128.091,3.889.061.577.185.9.676.966a8.24,8.24,0,0,0,.888.074.289.289,0,0,1,.21.066.161.161,0,0,1,.047.118c0,.221-.307.221-.4.221-.7,0-1.536-.028-2.085-.042-.278-.008-.5-.014-.587-.014-.144,0-.42.009-.74.02-.469.014-1.051.036-1.481.036a.489.489,0,0,1-.35-.091.177.177,0,0,1-.052-.13.151.151,0,0,1,.047-.113.407.407,0,0,1,.284-.071,2.93,2.93,0,0,0,.646-.072c.344-.069.427-.48.5-.969.091-.761.091-2.2.091-3.866v-3.2Z" transform="translate(407.294 -148.303)" fill="#fff"/>
      <path id="Path_1818" data-name="Path 1818" d="M-298.966,156.278c.027,0,.047-.006.052-.017a.048.048,0,0,0,0-.041l-1.632-4.493h0l0-.006-.005-.011c-.008-.036-.03-.121-.05-.121s-.047.041-.069.132l0,.006h0l-1.674,4.477V156.2c-.006.033-.006.058.006.069a.043.043,0,0,0,.033.011Zm-3.71.987c-.069,0-.091.014-.129.119l-.982,2.6a3.453,3.453,0,0,0-.27,1.095.487.487,0,0,0,.127.364.777.777,0,0,0,.56.163h.278c.146,0,.224.016.265.061a.165.165,0,0,1,.044.124c0,.191-.165.221-.35.221-.292,0-.642-.017-.98-.031s-.668-.025-.946-.025c-.064,0-.2,0-.4.011-.441.017-1.1.044-1.749.044a.468.468,0,0,1-.331-.078.184.184,0,0,1-.053-.144.157.157,0,0,1,.044-.124.288.288,0,0,1,.213-.061c.168,0,.416-.02.557-.036.778-.1,1.12-.623,1.517-1.614l4.566-11.422c.215-.521.334-.75.543-.75s.311.2.491.6c.193.439.866,2.13,1.641,4.085.99,2.474,2.215,5.55,2.869,7.1s1.164,1.862,1.572,1.958a4.107,4.107,0,0,0,.756.072.322.322,0,0,1,.235.058.179.179,0,0,1,.041.126c0,.191-.206.221-.877.221-.639,0-1.98,0-3.437-.039l-.08,0c-.3-.017-.505-.027-.505-.179s.146-.19.29-.2l0,0a.246.246,0,0,0,.141-.124.284.284,0,0,0-.006-.243s-1.453-3.856-1.453-3.856a.139.139,0,0,0-.147-.1Z" transform="translate(383.771 -147.785)" fill="#fff"/>
      <path id="Path_1819" data-name="Path 1819" d="M-253.418,156.016c0,1.958.019,3.329.036,3.672a4.231,4.231,0,0,0,.193,1.362c.115.169.626.712,2.352.712a5.793,5.793,0,0,0,4.157-1.3c1.017-.877,1.517-2.35,1.517-4.5a6.1,6.1,0,0,0-1.734-4.518,7.062,7.062,0,0,0-5.139-1.807,5.079,5.079,0,0,0-1.17.122c-.149.066-.193.143-.193.331-.019.618-.019,2.221-.019,3.636v2.292Zm-2.348-2c0-2.772,0-3.274-.036-3.853s-.157-.875-.756-1a3.824,3.824,0,0,0-.7-.055c-.16,0-.25-.019-.3-.072a.176.176,0,0,1-.047-.129c0-.188.212-.2.439-.2.557,0,1.192.017,1.7.033.384.011.709.02.921.02.237,0,.574-.008.965-.02.532-.017,1.2-.033,1.835-.033,2.248,0,5.326,0,7.326,2.085a6.52,6.52,0,0,1,1.771,4.648,7.262,7.262,0,0,1-1.991,5.1,6.525,6.525,0,0,1-2.11,1.4,10.061,10.061,0,0,1-4.014.759c-.728,0-1.558-.066-2.289-.124-.6-.05-1.17-.094-1.584-.094-.179,0-.494.009-.855.02-.48.014-1.023.036-1.437.036a.5.5,0,0,1-.351-.091.178.178,0,0,1-.052-.13.173.173,0,0,1,.041-.113.441.441,0,0,1,.29-.071,2.882,2.882,0,0,0,.645-.072c.347-.069.43-.48.5-.969.094-.761.094-2.2.094-3.866v-3.2Z" transform="translate(355.557 -148.303)" fill="#fff"/>
      <path id="Path_1820" data-name="Path 1820" d="M-201.422,156.278c.03,0,.047-.006.052-.017s.014-.025.005-.041L-203,151.727h-.008v-.006l-.005-.011c-.006-.036-.025-.121-.047-.121s-.052.041-.072.132v.006h0L-204.8,156.2l0-.006a.144.144,0,0,0,0,.069.051.051,0,0,0,.036.011Zm-3.707.987c-.066,0-.094.014-.124.119l-.987,2.6a3.439,3.439,0,0,0-.27,1.095.5.5,0,0,0,.124.364.8.8,0,0,0,.568.163h.273c.146,0,.223.016.27.061a.172.172,0,0,1,.042.124c0,.191-.171.221-.353.221-.3,0-.643-.017-.98-.031s-.667-.025-.946-.025c-.063,0-.2,0-.4.011-.442.017-1.1.044-1.744.044a.473.473,0,0,1-.334-.078.185.185,0,0,1-.052-.144.168.168,0,0,1,.041-.124.3.3,0,0,1,.216-.061c.168,0,.419-.02.56-.036.772-.1,1.12-.623,1.514-1.614l4.559-11.422c.218-.521.34-.75.547-.75s.314.2.491.6c.2.439.869,2.13,1.641,4.085.988,2.474,2.218,5.55,2.872,7.1s1.164,1.862,1.57,1.958a4.131,4.131,0,0,0,.761.072.3.3,0,0,1,.229.058.184.184,0,0,1,.047.126c0,.191-.213.221-.878.221-.648,0-1.984,0-3.442-.039l-.078,0c-.3-.017-.5-.027-.5-.179s.141-.19.281-.2v0a.235.235,0,0,0,.14-.124.3.3,0,0,0,0-.243s-1.453-3.856-1.453-3.856a.135.135,0,0,0-.146-.1Z" transform="translate(328.711 -147.785)" fill="#fff"/>
      <path id="Path_1821" data-name="Path 1821" d="M-159.627,149.469l-2.708.075c-1,.033-1.465.113-1.735.507a1.977,1.977,0,0,0-.3.626c-.031.113-.085.246-.237.246a.186.186,0,0,1-.135-.047.405.405,0,0,1-.066-.281c0-.293.342-1.942.384-2.1.055-.237.113-.372.253-.372a.574.574,0,0,1,.213.064,1.63,1.63,0,0,0,.568.154c.544.052,1.241.088,1.821.088h7.2a6.752,6.752,0,0,0,1.559-.149,1.073,1.073,0,0,1,.188-.033.15.15,0,0,1,.113.044c.058.061.069.171.069.378,0,.179-.011.554-.022.954-.017.447-.03.908-.03,1.156-.017.174-.057.329-.2.329-.2,0-.221-.161-.237-.4l-.017-.2c-.031-.35-.342-.943-2.113-.982l-2.29-.055.042-.038v7.459c0,1.666,0,3.106.088,3.886.061.551.193.882.679.946a7.166,7.166,0,0,0,.922.074.392.392,0,0,1,.284.077.133.133,0,0,1,.047.108c0,.139-.143.221-.388.221-.723,0-1.423-.023-1.995-.036-.348-.011-.659-.02-.861-.02-.177,0-.493.009-.852.02-.477.014-1.024.036-1.437.036a.507.507,0,0,1-.353-.091.188.188,0,0,1-.052-.13.161.161,0,0,1,.047-.113.417.417,0,0,1,.289-.071,2.848,2.848,0,0,0,.643-.072c.339-.069.444-.436.5-.966.091-.764.091-2.2.091-3.869v-7.459l.038.038Z" transform="translate(303.182 -147.975)" fill="#fff"/>
      <path id="Path_1822" data-name="Path 1822" d="M-116.852,156.278c.022,0,.047-.006.053-.017a.085.085,0,0,0,.006-.041l-1.641-4.493h0v-.017c-.011-.036-.031-.121-.053-.121s-.05.041-.072.132v.006h0l-1.673,4.477.006-.006c-.01.033-.01.058,0,.069a.046.046,0,0,0,.03.011Zm-3.707.987c-.071,0-.094.014-.129.119l-.982,2.6a3.538,3.538,0,0,0-.27,1.095.507.507,0,0,0,.122.364.8.8,0,0,0,.564.163h.277c.149,0,.223.016.27.061a.173.173,0,0,1,.041.124c0,.191-.166.221-.348.221-.292,0-.645-.017-.982-.031s-.669-.025-.946-.025c-.066,0-.206,0-.4.011-.436.017-1.1.044-1.749.044a.468.468,0,0,1-.331-.078.2.2,0,0,1-.054-.144.169.169,0,0,1,.045-.124.291.291,0,0,1,.215-.061c.166,0,.419-.02.56-.036.775-.1,1.117-.623,1.511-1.614l4.568-11.422c.216-.521.328-.75.541-.75.2,0,.312.2.488.6.2.439.867,2.13,1.65,4.085.982,2.474,2.212,5.55,2.863,7.1s1.161,1.862,1.578,1.958a3.977,3.977,0,0,0,.753.072c.108,0,.183.008.229.058a.166.166,0,0,1,.041.126c0,.191-.2.221-.872.221-.645,0-1.98,0-3.437-.039l-.08,0c-.306-.017-.5-.027-.5-.179s.14-.19.289-.2l-.006,0a.266.266,0,0,0,.142-.124.3.3,0,0,0-.006-.243s-1.453-3.856-1.453-3.856a.136.136,0,0,0-.146-.1Z" transform="translate(280.978 -147.785)" fill="#fff"/>
      <path id="Path_1823" data-name="Path 1823" d="M-83.194,174.487a1.989,1.989,0,0,0,1.983,1.986,1.99,1.99,0,0,0,1.994-1.986,1.992,1.992,0,0,0-1.994-1.991,1.992,1.992,0,0,0-1.983,1.991Zm.246,0a1.744,1.744,0,0,1,1.737-1.743,1.744,1.744,0,0,1,1.746,1.743,1.742,1.742,0,0,1-1.746,1.738,1.742,1.742,0,0,1-1.737-1.738Z" transform="translate(257.113 -161.733)" fill="#fff"/>
      <path id="Path_1824" data-name="Path 1824" d="M-79.682,174.5h.078c.292,0,.635.052.635.416s-.322.43-.618.43h-.094V174.5Zm.425,1.061a.636.636,0,0,0,.566-.656.656.656,0,0,0-.309-.557,1.25,1.25,0,0,0-.618-.11h-.353v2.339h.289v-.987h.118l.693.987h.353l-.74-1.015Z" transform="translate(255.294 -162.716)" fill="#fff"/>
    </g>
  </g>
</svg>
